<?xml version="1.0" standalone="no"?>
<!DOCTYPE svg PUBLIC "-//W3C//DTD SVG 20010904//EN"
 "http://www.w3.org/TR/2001/REC-SVG-20010904/DTD/svg10.dtd">
<svg version="1.0" xmlns="http://www.w3.org/2000/svg"
 width="100.000000pt" height="100.000000pt" viewBox="0 0 100.000000 100.000000"
 preserveAspectRatio="xMidYMid meet">

<g transform="translate(0.000000,100.000000) scale(0.100000,-0.100000)"
fill="#000000" stroke="none">
<path d="M345 935 c-19 -18 -25 -35 -25 -70 l0 -45 -97 0 c-111 0 -148 -15
-183 -72 -19 -31 -20 -48 -18 -368 l3 -335 475 0 475 0 3 330 c2 369 1 377
-67 422 -30 20 -47 23 -132 23 l-99 0 0 45 c0 35 -6 52 -25 70 -23 24 -29 25
-155 25 -126 0 -132 -1 -155 -25z m283 -27 c7 -7 12 -29 12 -50 l0 -38 -140 0
-140 0 0 38 c0 21 5 43 12 50 17 17 239 17 256 0z m261 -142 c49 -26 51 -43
51 -376 l0 -310 -440 0 -440 0 0 313 c1 333 2 346 51 373 36 20 739 20 778 0z"/>
<path d="M433 661 c-54 -25 -73 -62 -71 -137 1 -44 9 -73 30 -113 15 -30 28
-60 28 -68 0 -7 -25 -25 -55 -39 -65 -31 -77 -43 -78 -86 l-2 -33 215 0 215 0
-2 33 c-1 43 -13 55 -78 86 -30 14 -55 32 -55 39 0 8 13 38 28 68 56 106 36
207 -49 249 -52 25 -72 25 -126 1z m82 -31 c3 -5 14 -10 24 -10 34 0 56 -38
57 -99 1 -31 -2 -58 -5 -61 -13 -11 -51 -96 -51 -115 0 -32 16 -48 71 -75 92
-44 80 -50 -111 -50 -191 0 -203 6 -111 50 78 38 87 63 49 140 -13 25 -25 47
-28 50 -10 10 -9 113 1 132 10 19 61 47 86 48 6 0 15 -4 18 -10z"/>
</g>
</svg>
